<svg width="128" height="128" viewBox="0 0 128 128" fill="none" xmlns="http://www.w3.org/2000/svg">
<rect width="128" height="128" rx="64" fill="white"/>
<path d="M85 31.0395C96.3064 36.1352 103.56 40.8508 111.515 52C116.506 46.0537 116.818 39.9588 107.927 31.3368C98.2574 23.7553 91.2388 24.7959 85 31.0395Z" fill="black" stroke="black" stroke-width="6" stroke-linejoin="round"/>
<path d="M41 31.0395C30.4474 36.1352 23.677 40.8508 16.2528 52C11.5946 46.0537 11.3035 39.9588 19.601 31.3368C28.6265 23.7553 35.1771 24.7959 41 31.0395Z" fill="black" stroke="black" stroke-width="6" stroke-linejoin="round"/>
<path d="M29.9844 63.7676C35.3526 56.1126 44.8449 53.3376 51.1348 57.3037C57.3973 61.2527 58.3811 70.5812 53.0156 78.2324C47.6474 85.8874 38.1551 88.6624 31.8652 84.6963C25.6027 80.7473 24.6189 71.4188 29.9844 63.7676ZM75.8652 57.3037C82.1551 53.3376 91.6474 56.1126 97.0156 63.7676C102.381 71.4188 101.397 80.7473 95.1348 84.6963C88.8449 88.6624 79.3526 85.8874 73.9844 78.2324C68.6189 70.5812 69.6027 61.2527 75.8652 57.3037Z" fill="black" stroke="black" stroke-width="6" stroke-linejoin="round"/>
<path d="M63 97V105M63 97H58M63 97H68M63 105C58.0705 110.246 53.1059 110.195 48 104.5M63 105C68.3111 110.318 73.0412 110.1 78 104.5" stroke="black" stroke-width="6" stroke-linecap="round" stroke-linejoin="round"/>
</svg>
