<svg width="128" height="128" viewBox="0 0 128 128" fill="none" xmlns="http://www.w3.org/2000/svg">
<rect width="128" height="128" rx="14" fill="white"/>
<path d="M89 26.8148C101.437 32.6945 109.416 38.1355 118.166 51C123.656 44.1389 123.999 37.1064 114.22 27.1578C103.583 18.41 95.8626 19.6107 89 26.8148Z" fill="black" stroke="black" stroke-width="6" stroke-linejoin="round"/>
<path d="M38 26.8148C25.563 32.6945 17.5836 38.1355 8.83371 51C3.34366 44.1389 3.00052 37.1064 12.7798 27.1578C23.4169 18.41 31.1374 19.6107 38 26.8148Z" fill="black" stroke="black" stroke-width="6" stroke-linejoin="round"/>
<path d="M100.374 70.7676C94.6058 62.3564 84.9606 59.9934 79.127 63.7549C77.5207 64.7907 76.2455 66.2719 75.3672 68.0518C76.624 66.1783 78.7874 64.9708 81.1768 64.9707C84.9265 64.9707 88.1258 67.941 88.126 71.7988C88.126 75.6568 84.9266 78.6279 81.1768 78.6279C77.4271 78.6277 74.2285 75.6567 74.2285 71.7988C74.2285 71.7048 74.2326 71.6115 74.2363 71.5186C73.4836 75.6378 74.4387 80.5849 77.626 85.2324C83.3942 93.6436 93.0394 96.0066 98.873 92.2451C104.611 88.5452 106.134 79.1669 100.374 70.7676Z" fill="black" stroke="black" stroke-width="6" stroke-linejoin="round"/>
<path d="M26.626 70.7676C32.3942 62.3564 42.0394 59.9934 47.873 63.7549C49.4793 64.7907 50.7545 66.2719 51.6328 68.0518C50.376 66.1783 48.2126 64.9708 45.8232 64.9707C42.0735 64.9707 38.8742 67.941 38.874 71.7988C38.874 75.6568 42.0734 78.6279 45.8232 78.6279C49.5729 78.6277 52.7715 75.6567 52.7715 71.7988C52.7715 71.7048 52.7674 71.6115 52.7637 71.5186C53.5164 75.6378 52.5613 80.5849 49.374 85.2324C43.6058 93.6436 33.9606 96.0066 28.127 92.2451C22.3894 88.5452 20.8659 79.1669 26.626 70.7676Z" fill="black" stroke="black" stroke-width="6" stroke-linejoin="round"/>
<path d="M62.5 101C64.7803 101 66.6982 101.444 67.9336 102.029C68.3203 102.213 68.5766 102.374 68.7451 102.5C68.5766 102.626 68.3203 102.787 67.9336 102.971C66.6982 103.556 64.7803 104 62.5 104C60.2197 104 58.3018 103.556 57.0664 102.971C56.6792 102.787 56.4225 102.626 56.2539 102.5C56.4225 102.374 56.6792 102.213 57.0664 102.029C58.3018 101.444 60.2197 101 62.5 101Z" fill="black" stroke="black" stroke-width="6"/>
<path d="M62.8148 107V112.44M62.8148 112.44C57.127 118.268 53.8914 118.767 48 112.44M62.8148 112.44C68.9431 118.349 72.2784 118.662 78 112.44" stroke="black" stroke-width="6" stroke-linecap="round" stroke-linejoin="round"/>
</svg>
